<?xml version="1.0" encoding="UTF-8" standalone="no"?>
<svg width="45px" height="41px" viewBox="0 0 45 41" version="1.1" xmlns="http://www.w3.org/2000/svg" xmlns:xlink="http://www.w3.org/1999/xlink">
    <!-- Generator: sketchtool 41.2 (35397) - http://www.bohemiancoding.com/sketch -->
    <title>71081D1B-5117-406C-B3C0-904F5659C8BF</title>
    <desc>Created with sketchtool.</desc>
    <defs>
        <polygon id="path-1" points="44.4708434 40.9821815 44.4708434 0.000107894737 0 0.000107894737 0 40.9821815"></polygon>
    </defs>
    <g id="Ui-Ipad-portrait" stroke="none" stroke-width="1" fill="none" fill-rule="evenodd">
        <g id="case-study-tablet" transform="translate(-30.000000, -2898.000000)">
            <g id="Group-3" transform="translate(29.000000, 2515.000000)">
                <g id="Benefits" transform="translate(0.000000, 383.000000)">
                    <g id="icon-benefits" transform="translate(1.000000, 0.000000)">
                        <mask id="mask-2" fill="white">
                            <use xlink:href="#path-1"></use>
                        </mask>
                        <g id="Clip-2"></g>
                        <path d="M34.8562952,39.4177776 L22.5046084,32.6209487 C22.3376205,32.5297776 22.1337651,32.5297776 21.9662349,32.6209487 L9.61454819,39.4177776 L12.4728614,25.9471197 C12.5146084,25.7620803 12.4511747,25.5694882 12.3069578,25.4410934 L1.81599398,16.1772513 L15.9329819,14.6451461 C16.1232831,14.6235671 16.2886446,14.5070408 16.3683434,14.338725 L22.2356928,1.81808026 L28.1025,14.338725 C28.1821988,14.5070408 28.3475602,14.6235671 28.5378614,14.6451461 L42.6553916,16.1772513 L32.1638855,25.4410934 C32.0196687,25.5694882 31.9562349,25.7620803 31.9979819,25.9471197 L34.8562952,39.4177776 Z M35.6874398,40.9806329 C35.9899699,40.9552776 36.2138855,40.6968697 36.1873193,40.4039355 C36.1856928,40.383975 36.1824398,40.3645539 36.1781024,40.3445934 L33.1381627,26.0312776 L44.2938253,16.1696987 C44.5171988,15.9706329 44.5312952,15.6340013 44.3252711,15.4176724 C44.2363554,15.3243434 44.1154518,15.2650013 43.9853313,15.2504355 L28.9656325,13.6179882 L22.734488,0.308632895 C22.6065361,0.0415934211 22.2796084,-0.0743934211 22.0041867,0.0491460526 C21.8865361,0.102553947 21.7911145,0.194264474 21.7368976,0.308632895 L15.505753,13.6179882 L0.485512048,15.2504355 C0.184066265,15.2844224 -0.0317168675,15.5487645 0.00352409638,15.8406197 C0.019246988,15.9668566 0.0805120482,16.0833829 0.177018072,16.1696987 L11.3326807,26.0312776 L8.2921988,40.3445934 C8.23418675,40.6332118 8.42828313,40.9126592 8.7264759,40.9693039 C8.85388554,40.9935803 8.98671687,40.9730803 9.10003012,40.9121197 L22.2356928,33.6858697 L35.3708133,40.9121197 C35.4667771,40.9649882 35.5773795,40.988725 35.6874398,40.9806329 L35.6874398,40.9806329 Z" id="Fill-1" fill="#000000" mask="url(#mask-2)"></path>
                    </g>
                </g>
            </g>
        </g>
    </g>
</svg>