<svg width="47" height="58" xmlns="http://www.w3.org/2000/svg" xmlns:xlink="http://www.w3.org/1999/xlink" xml:space="preserve" style="shape-rendering:geometricPrecision;text-rendering:geometricPrecision;image-rendering:optimizeQuality;" viewBox="0 0 6.82666 8.533325000000001" x="0px" y="0px" fill-rule="evenodd" clip-rule="evenodd"><defs><style type="text/css">
   
    .fil1 {fill:none}
    .fil0 {fill:white;fill-rule:nonzero}
   
  </style></defs><g><path class="fil0" d="M3.65071 5.97c0.0441811,0 0.08,-0.0358189 0.08,-0.08 0,-0.0441811 -0.0358189,-0.08 -0.08,-0.08l-2.21643 0 0 -4.79667 3.95159 0 0 3.13248c0,0.0441811 0.0358189,0.08 0.08,0.08 0.0441811,0 0.08,-0.0358189 0.08,-0.08l0 -3.21248c0,-0.0441811 -0.0358189,-0.08 -0.08,-0.08l-4.11159 0c-0.0441811,0 -0.08,0.0358189 -0.08,0.08l0 4.95667c0,0.0441811 0.0358189,0.08 0.08,0.08l2.29643 0z"/><path class="fil0" d="M2.09981 1.80406c-0.0441811,0 -0.08,0.0358189 -0.08,0.08 0,0.0441811 0.0358189,0.08 0.08,0.08l2.00298 0c0.0441811,0 0.08,-0.0358189 0.08,-0.08 0,-0.0441811 -0.0358189,-0.08 -0.08,-0.08l-2.00298 0z"/><path class="fil0" d="M2.09981 2.56786c-0.0441811,0 -0.08,0.0358189 -0.08,0.08 0,0.0441811 0.0358189,0.08 0.08,0.08l2.33329 0c0.0441811,0 0.08,-0.0358189 0.08,-0.08 0,-0.0441811 -0.0358189,-0.08 -0.08,-0.08l-2.33329 0z"/><path class="fil0" d="M2.09981 3.33167c-0.0441811,0 -0.08,0.0358189 -0.08,0.08 0,0.0441811 0.0358189,0.08 0.08,0.08l1.62894 0 0.991594 0c0.0441811,0 0.08,-0.0358189 0.08,-0.08 0,-0.0441811 -0.0358189,-0.08 -0.08,-0.08l-0.991594 0 -1.62894 0z"/><path class="fil0" d="M5.55238 5.06785c0,-0.0441811 -0.0358189,-0.08 -0.08,-0.08 -0.0441811,0 -0.08,0.0358189 -0.08,0.08l0 0.745484 -1.26769 0 0 -1.19626 0.856673 0c0.0441811,0 0.08,-0.0358189 0.08,-0.08 0,-0.0441811 -0.0358189,-0.08 -0.08,-0.08l-0.936673 0c-0.0441811,0 -0.08,0.0358189 -0.08,0.08l0 1.35626c0,0.0441811 0.0358189,0.08 0.08,0.08l1.42769 0c0.0441811,0 0.08,-0.0358189 0.08,-0.08l0 -0.825484z"/><path class="fil0" d="M4.39194 5.07414c-0.0312362,-0.0312362 -0.0818898,-0.0312362 -0.113126,0 -0.0312362,0.0312362 -0.0312362,0.0818898 0,0.113126l0.352902 0.352902 -3.93701e-006 3.93701e-006c0.0312402,0.0312402 0.0818937,0.0312402 0.113134,0 0.0028937,-0.0028937 0.00551575,-0.00595276 0.00787008,-0.00914961l0.693079 -0.801228c0.0288228,-0.0333071 0.025185,-0.0836772 -0.00812205,-0.1125 -0.0333071,-0.0288228 -0.0836772,-0.025185 -0.1125,0.00812205l-0.640969 0.740988 -0.292264 -0.292264z"/></g><rect class="fil1" width="6.82666" height="6.82666"/><text x="0" y="21.82666" fill="#000000" font-size="5px" font-weight="bold" font-family="'Helvetica Neue', Helvetica, Arial-Unicode, Arial, Sans-serif">Created by IYIKON</text><text x="0" y="26.82666" fill="#000000" font-size="5px" font-weight="bold" font-family="'Helvetica Neue', Helvetica, Arial-Unicode, Arial, Sans-serif">from the Noun Project</text></svg>