<?xml version="1.0" encoding="UTF-8" standalone="no"?>
<svg width="55px" height="44px" viewBox="0 0 55 44" version="1.1" xmlns="http://www.w3.org/2000/svg" xmlns:xlink="http://www.w3.org/1999/xlink">
    <!-- Generator: sketchtool 39 (31667) - http://www.bohemiancoding.com/sketch -->
    <title>23B1816B-C36E-4C85-87D9-3030DDC6E3B0</title>
    <desc>Created with sketchtool.</desc>
    <defs>
        <polygon id="path-1" points="52.078125 0.34375 0.1711875 0.34375 0.1711875 33.3436813 52.078125 33.3436813"></polygon>
    </defs>
    <g id="Desktop" stroke="none" stroke-width="1" fill="none" fill-rule="evenodd">
        <g id="Service.3rd-level-desktop" transform="translate(-1116.000000, -2537.000000)">
            <g id="Parte-blu" transform="translate(24.000000, 2295.000000)">
                <g id="icon-improve" transform="translate(1092.000000, 242.000000)">
                    <polygon id="Fill-1" fill="#FFFFFF" points="0 43.65625 55 43.65625 55 42.28125 0 42.28125"></polygon>
                    <g id="Group-4" transform="translate(1.375000, 0.343750)">
                        <mask id="mask-2" fill="white">
                            <use xlink:href="#path-1"></use>
                        </mask>
                        <g id="Clip-3"></g>
                        <path d="M47.609375,7.21868125 C46.2825,7.21868125 45.203125,6.13930625 45.203125,4.81243125 C45.203125,3.48555625 46.2825,2.40618125 47.609375,2.40618125 C48.93625,2.40618125 50.015625,3.48555625 50.015625,4.81243125 C50.015625,6.13930625 48.93625,7.21868125 47.609375,7.21868125 M32.140625,31.2811812 C30.81375,31.2811812 29.734375,30.2018062 29.734375,28.8749312 C29.734375,27.5480562 30.81375,26.4686812 32.140625,26.4686812 C33.4675,26.4686812 34.546875,27.5480562 34.546875,28.8749312 C34.546875,30.2018062 33.4675,31.2811812 32.140625,31.2811812 M15.984375,11.6874312 C15.984375,10.3605562 17.06375,9.28118125 18.390625,9.28118125 C19.7175,9.28118125 20.796875,10.3605562 20.796875,11.6874312 C20.796875,13.0143062 19.7175,14.0936812 18.390625,14.0936812 C17.06375,14.0936812 15.984375,13.0143062 15.984375,11.6874312 M4.640625,27.8436812 C3.31375,27.8436812 2.234375,26.7643062 2.234375,25.4374312 C2.234375,24.1105562 3.31375,23.0311812 4.640625,23.0311812 C5.9675,23.0311812 7.046875,24.1105562 7.046875,25.4374312 C7.046875,26.7643062 5.9675,27.8436812 4.640625,27.8436812 M47.609375,0.34368125 C45.145375,0.34368125 43.140625,2.34843125 43.140625,4.81243125 C43.140625,6.27955625 43.85425,7.57961875 44.950125,8.39499375 L33.5740625,24.6468062 C33.12375,24.4928062 32.6425,24.4061812 32.140625,24.4061812 C31.25925,24.4061812 30.438375,24.6660562 29.745375,25.1081187 L21.822625,14.5446812 C22.468875,13.7691812 22.859375,12.7729937 22.859375,11.6874312 C22.859375,9.22343125 20.854625,7.21868125 18.390625,7.21868125 C15.926625,7.21868125 13.921875,9.22343125 13.921875,11.6874312 C13.921875,12.6719312 14.2456875,13.5794312 14.78675,14.3191812 L7.2716875,21.8335562 C6.532625,21.2924937 5.6244375,20.9686812 4.6399375,20.9686812 C2.1759375,20.9686812 0.1711875,22.9734312 0.1711875,25.4374312 C0.1711875,27.9014312 2.1759375,29.9061812 4.6399375,29.9061812 C7.1039375,29.9061812 9.1086875,27.9014312 9.1086875,25.4374312 C9.1086875,24.4529312 8.784875,23.5454312 8.2438125,22.8056812 L15.758875,15.2913062 C16.4979375,15.8330562 17.406125,16.1561812 18.390625,16.1561812 C19.272,16.1561812 20.092875,15.8963062 20.785875,15.4542437 L28.708625,26.0176812 C28.0616875,26.7931812 27.671875,27.7886812 27.671875,28.8749312 C27.671875,31.3389312 29.676625,33.3436812 32.140625,33.3436812 C34.604625,33.3436812 36.609375,31.3389312 36.609375,28.8749312 C36.609375,27.4078062 35.89575,26.1077437 34.799875,25.2930562 L46.1759375,9.04124375 C46.62625,9.19455625 47.1075,9.28118125 47.609375,9.28118125 C50.073375,9.28118125 52.078125,7.27643125 52.078125,4.81243125 C52.078125,2.34843125 50.073375,0.34368125 47.609375,0.34368125" id="Fill-2" fill="#FFFFFF" mask="url(#mask-2)"></path>
                    </g>
                </g>
            </g>
        </g>
    </g>
</svg>