<?xml version="1.0" encoding="UTF-8" standalone="no"?>
<svg width="56px" height="45px" viewBox="0 0 56 45" version="1.1" xmlns="http://www.w3.org/2000/svg" xmlns:xlink="http://www.w3.org/1999/xlink">
    <!-- Generator: sketchtool 39 (31667) - http://www.bohemiancoding.com/sketch -->
    <title>A3995BBE-D755-4239-8759-D0040AD7FAF4</title>
    <desc>Created with sketchtool.</desc>
    <defs>
        <polygon id="path-1" points="27.9076308 44.9846154 0 44.9846154 0 0 27.9076308 0 55.8152615 8.74514136e-15 55.8152615 44.9846154 27.9076308 44.9846154"></polygon>
    </defs>
    <g id="Desktop" stroke="none" stroke-width="1" fill="none" fill-rule="evenodd">
        <g id="Service.3rd-level-desktop" transform="translate(-754.000000, -2548.000000)">
            <g id="Parte-blu" transform="translate(24.000000, 2295.000000)">
                <g id="icon-manage" transform="translate(730.000000, 253.000000)">
                    <mask id="mask-2" fill="white">
                        <use xlink:href="#path-1"></use>
                    </mask>
                    <g id="Clip-2"></g>
                    <path d="M19.1998769,17.9076923 L36.6768,17.9076923 C38.2768,17.9076923 39.5075692,16.6153846 39.5075692,15.0769231 L39.5075692,4.36923077 C39.5075692,2.76923077 38.2152615,1.53846154 36.6768,1.53846154 L19.1998769,1.53846154 C17.5998769,1.53846154 16.3691077,2.83076923 16.3691077,4.36923077 L16.3691077,15.0769231 C16.3691077,16.6153846 17.6614154,17.9076923 19.1998769,17.9076923 L19.1998769,17.9076923 Z M52.6768,35.5076923 L43.2620308,35.5076923 C42.3389538,35.5076923 41.5998769,36.2461538 41.5998769,37.1692308 L41.5998769,41.7230769 C41.5998769,42.6461538 42.3389538,43.3846154 43.2620308,43.3846154 L52.6152615,43.3846154 C53.5383385,43.3846154 54.2768,42.6461538 54.2768,41.7230769 L54.2768,37.1692308 C54.3389538,36.2461538 53.5998769,35.5076923 52.6768,35.5076923 L52.6768,35.5076923 Z M32.6152615,35.5076923 L23.2614154,35.5076923 C22.3383385,35.5076923 21.5998769,36.2461538 21.5998769,37.1692308 L21.5998769,41.7230769 C21.5998769,42.6461538 22.3383385,43.3846154 23.2614154,43.3846154 L32.6152615,43.3846154 C33.5383385,43.3846154 34.2768,42.6461538 34.2768,41.7230769 L34.2768,37.1692308 C34.3389538,36.2461538 33.5383385,35.5076923 32.6152615,35.5076923 L32.6152615,35.5076923 Z M12.6152615,35.5076923 L3.19987692,35.5076923 C2.2768,35.5076923 1.53833846,36.2461538 1.53833846,37.1692308 L1.53833846,41.7230769 C1.53833846,42.6461538 2.2768,43.3846154 3.19987692,43.3846154 L12.5537231,43.3846154 C13.4768,43.3846154 14.2152615,42.6461538 14.2152615,41.7230769 L14.2152615,37.1692308 C14.2768,36.2461538 13.5383385,35.5076923 12.6152615,35.5076923 L12.6152615,35.5076923 Z M27.1998769,25.4153846 L27.1998769,19.3846154 L19.1998769,19.3846154 C16.7998769,19.3846154 14.8306462,17.4153846 14.8306462,15.0153846 L14.8306462,4.36923077 C14.8306462,1.96923077 16.7998769,0 19.1998769,0 L36.6768,0 C39.0768,0 41.0460308,1.96923077 41.0460308,4.36923077 L41.0460308,15.0769231 C41.0460308,17.4769231 39.0768,19.4461538 36.6768,19.4461538 L28.6768,19.4461538 L28.6768,25.4769231 L47.9383385,25.4769231 C48.3691077,25.4769231 48.6768,25.7846154 48.6768,26.2153846 L48.6768,34.0307692 L52.6152615,34.0307692 C54.3998769,34.0307692 55.8152615,35.4461538 55.8152615,37.2307692 L55.8152615,41.7846154 C55.8152615,43.5692308 54.3998769,44.9846154 52.6152615,44.9846154 L43.2620308,44.9846154 C41.4768,44.9846154 40.0614154,43.5692308 40.0614154,41.7846154 L40.0614154,37.2307692 C40.0614154,35.4461538 41.4768,34.0307692 43.2620308,34.0307692 L47.1998769,34.0307692 L47.1998769,26.9538462 L28.6768,26.9538462 L28.6768,34.0307692 L32.6152615,34.0307692 C34.3998769,34.0307692 35.8152615,35.4461538 35.8152615,37.2307692 L35.8152615,41.7846154 C35.8152615,43.5692308 34.3998769,44.9846154 32.6152615,44.9846154 L23.2614154,44.9846154 C21.4768,44.9846154 20.0614154,43.5692308 20.0614154,41.7846154 L20.0614154,37.2307692 C20.0614154,35.4461538 21.4768,34.0307692 23.2614154,34.0307692 L27.1998769,34.0307692 L27.1998769,26.9538462 L8.6768,26.9538462 L8.6768,34.0307692 L12.6152615,34.0307692 C14.3998769,34.0307692 15.8152615,35.4461538 15.8152615,37.2307692 L15.8152615,41.7846154 C15.8152615,43.5692308 14.3998769,44.9846154 12.6152615,44.9846154 L3.19987692,44.9846154 C1.41526154,44.9846154 -0.000123076923,43.5692308 -0.000123076923,41.7846154 L-0.000123076923,37.2307692 C-0.000123076923,35.4461538 1.41526154,34.0307692 3.19987692,34.0307692 L7.13833846,34.0307692 L7.13833846,26.2153846 C7.13833846,25.7846154 7.44603077,25.4769231 7.8768,25.4769231 L27.1998769,25.4769231 L27.1998769,25.4153846 Z M35.0768,12.4307692 C35.0768,12 34.7691077,11.6923077 34.3389538,11.6923077 L21.5998769,11.6923077 C21.1691077,11.6923077 20.8614154,12 20.8614154,12.4307692 C20.8614154,12.8615385 21.1691077,13.1692308 21.5998769,13.1692308 L34.3389538,13.1692308 C34.7075692,13.1692308 35.0768,12.8615385 35.0768,12.4307692 L35.0768,12.4307692 Z M20.7998769,6.95384615 C20.7998769,6.52307692 21.1075692,6.21538462 21.5383385,6.21538462 L34.2768,6.21538462 C34.7075692,6.21538462 35.0152615,6.52307692 35.0152615,6.95384615 C35.0152615,7.38461538 34.7075692,7.69230769 34.2768,7.69230769 L21.5998769,7.69230769 C21.1691077,7.69230769 20.7998769,7.38461538 20.7998769,6.95384615 L20.7998769,6.95384615 Z" id="Fill-1" fill="#FFFFFF" mask="url(#mask-2)"></path>
                </g>
            </g>
        </g>
    </g>
</svg>