<?xml version="1.0" encoding="UTF-8" standalone="no"?>
<svg width="55px" height="43px" viewBox="0 0 55 43" version="1.1" xmlns="http://www.w3.org/2000/svg" xmlns:xlink="http://www.w3.org/1999/xlink">
    <!-- Generator: sketchtool 41.2 (35397) - http://www.bohemiancoding.com/sketch -->
    <title>CB05C436-E693-462F-9456-7CC0F75B8058</title>
    <desc>Created with sketchtool.</desc>
    <defs></defs>
    <g id="Ui-Ipad-portrait" stroke="none" stroke-width="1" fill="none" fill-rule="evenodd">
        <g id="case-study-tablet" transform="translate(-428.000000, -2517.000000)" fill="#000000">
            <g id="Group-3" transform="translate(29.000000, 2515.000000)">
                <g id="Solutions" transform="translate(399.000000, 2.000000)">
                    <g id="icon-solutions">
                        <path d="M14.0230279,0.000271126761 C11.7115525,0.000271126761 9.82384754,1.89815845 9.82384754,4.22210211 C9.82384754,5.19041197 10.1705689,6.08125704 10.7099131,6.81717254 L7.70491806e-05,6.81717254 L7.70491806e-05,17.7784401 C0.732044262,17.1199894 1.73368361,16.6939331 2.81237213,16.6939331 C5.12384754,16.6939331 7.01155246,18.5918204 7.01155246,20.9157641 C7.01155246,23.2397077 5.12384754,25.1372077 2.81237213,25.1372077 C1.73368361,25.1372077 0.770568852,24.7115387 7.70491806e-05,24.053088 L7.70491806e-05,35.0139683 L10.9025361,35.0139683 C10.247618,34.2784401 9.82384754,33.2710106 9.82384754,32.1868908 C9.82384754,29.8629472 11.7115525,27.9650599 14.0230279,27.9650599 C16.3345033,27.9650599 18.2222082,29.8629472 18.2222082,32.1868908 C18.2222082,33.2710106 17.7984377,34.2393204 17.1435197,35.0139683 L28.0459787,35.0139683 L28.0459787,24.053088 C27.3140115,24.7115387 26.3123721,25.1372077 25.2336836,25.1372077 C22.9222082,25.1372077 21.0345033,23.2397077 21.0345033,20.9157641 C21.0345033,18.5918204 22.9222082,16.6939331 25.2336836,16.6939331 C26.3123721,16.6939331 27.2754869,17.1199894 28.0459787,17.7784401 L28.0459787,6.81717254 L17.3361426,6.81717254 C17.8754869,6.11998944 18.2222082,5.19041197 18.2222082,4.22210211 C18.2222082,1.89815845 16.3345033,0.000271126761 14.0230279,0.000271126761 M14.0230279,0.774919014 C15.9107328,0.774919014 17.4517164,2.32421479 17.4517164,4.22210211 C17.4517164,4.99675 17.2205689,5.73266549 16.7197492,6.31365141 L15.7566344,7.55308803 L17.3361426,7.55308803 L27.2754869,7.55308803 L27.2754869,16.3453415 C26.6590934,16.0742148 25.9656508,15.9192852 25.2336836,15.9192852 C22.4984377,15.9192852 20.2640115,18.1657641 20.2640115,20.9157641 C20.2640115,23.6657641 22.4984377,25.9118556 25.2336836,25.9118556 C25.9271262,25.9118556 26.6205689,25.7573134 27.2754869,25.4861866 L27.2754869,34.2393204 L18.5689295,34.2393204 C18.8386016,33.6199894 18.9927,32.9228063 18.9927,32.1868908 C18.9927,29.4368908 16.7582738,27.190412 14.0230279,27.190412 C11.287782,27.190412 9.05335574,29.4368908 9.05335574,32.1868908 C9.05335574,32.8836866 9.2074541,33.581257 9.47712623,34.2393204 L0.770568852,34.2393204 L0.770568852,25.4861866 C1.3869623,25.7573134 2.08040492,25.9118556 2.81237213,25.9118556 C5.54761803,25.9118556 7.78204426,23.6657641 7.78204426,20.9157641 C7.78204426,18.1657641 5.54761803,15.9192852 2.81237213,15.9192852 C2.11892951,15.9192852 1.42548689,16.0742148 0.770568852,16.3453415 L0.770568852,7.59182042 L10.7099131,7.59182042 L12.2894213,7.59182042 L11.3263066,6.3523838 C10.8640115,5.73266549 10.5943393,4.99675 10.5943393,4.26083451 C10.5943393,2.32421479 12.135323,0.774919014 14.0230279,0.774919014" id="Fill-1"></path>
                        <path d="M53.9716025,24.2768451 C52.7773402,25.0174085 51.1593074,25.1731127 49.5412746,24.3159648 C48.9634057,24.004169 48.5011107,23.536669 48.2318238,22.9518099 C47.8465779,22.2112465 47.6539549,21.4710704 47.6539549,20.730507 C47.6539549,18.4309648 49.50275,16.5605775 51.7757008,16.5605775 C52.5847172,16.5605775 53.3166844,16.7945211 53.9330779,17.184169 C54.3183238,17.4181127 54.7810041,17.184169 54.7810041,16.7162817 L54.7810041,7.3631831 C54.7810041,7.05138732 54.5494713,6.81744366 54.2412746,6.81744366 L44.995373,6.81744366 C44.6871762,6.81744366 44.4560287,7.09011972 44.4560287,7.3631831 C44.4560287,7.48015493 44.4945533,7.55800704 44.5330779,7.67497887 C44.9183238,8.29857042 45.1498566,9.0778662 45.1498566,9.85716197 C45.1498566,12.8581479 41.9904549,15.1576901 38.8314385,13.4817394 C38.2535697,13.1699437 37.7912746,12.7024437 37.4830779,12.1567042 C37.0593074,11.3770211 36.905209,10.6368451 36.905209,9.89628169 C36.905209,9.0778662 37.1363566,8.33730282 37.5216025,7.67497887 C37.5986516,7.59712676 37.5986516,7.48015493 37.5986516,7.3631831 C37.5986516,7.09011972 37.3675041,6.81744366 37.0593074,6.81744366 L27.8519303,6.81744366 C27.5437336,6.81744366 27.3125861,7.05138732 27.3125861,7.3631831 L27.3122008,7.58511972 L28.0830779,7.58511972 L28.0830779,7.55800704 L36.7125861,7.55800704 C36.3658648,8.2594507 36.1732418,9.03874648 36.1732418,9.85716197 C36.1732418,10.7534296 36.4043893,11.6500845 36.8666844,12.5072324 C37.2519303,13.2090634 37.8297992,13.7935352 38.5232418,14.1831831 C40.2183238,15.0794507 42.0675041,15.0794507 43.608873,14.1440634 C45.0724221,13.2477958 45.9584877,11.6500845 45.9584877,9.89628169 C45.9584877,9.11659859 45.7658648,8.29857042 45.4191434,7.59712676 L54.0486516,7.59712676 L54.0486516,16.2879014 C53.355209,15.9369859 52.5847172,15.742162 51.7757008,15.742162 C49.0789795,15.742162 46.8834631,17.9634648 46.8834631,20.6913873 C46.8834631,21.5489225 47.1142254,22.4451901 47.5379959,23.2636056 C47.9232418,24.004169 48.5011107,24.5886408 49.1949385,24.9395563 C50.8125861,25.8354366 52.5461926,25.8749437 54.0486516,25.0952606 L54.0486516,34.2148028 L45.0338975,34.2148028 C44.3019303,34.2148028 43.7240615,34.7992746 43.7240615,35.539838 C43.7240615,35.8125141 43.8014959,36.0464577 43.9166844,36.2412817 C44.2634057,36.7870211 44.4175041,37.4102254 44.4175041,38.0342042 C44.4175041,39.2422676 43.8014959,40.3333592 42.7994713,40.9565634 C41.7593074,41.6192746 40.4494713,41.6192746 39.255209,40.9565634 C38.8314385,40.723007 38.4461926,40.3724789 38.2150451,39.9433239 C37.8683238,39.3201197 37.7142254,38.6965282 37.7142254,38.0342042 C37.7142254,37.4102254 37.9068484,36.7870211 38.2150451,36.2412817 C38.3306189,36.007338 38.407668,35.7737817 38.407668,35.539838 C38.407668,34.7992746 37.8297992,34.2148028 37.097832,34.2148028 L30.0609303,34.2148028 L30.0609303,34.2194507 L27.2744467,34.2194507 L27.2740615,34.4487465 C27.2740615,34.7601549 27.505209,34.9940986 27.8134057,34.9940986 L37.0593074,34.9940986 C37.3675041,34.9940986 37.5986516,35.267162 37.5986516,35.539838 C37.5986516,35.6568099 37.560127,35.734662 37.5216025,35.8516338 C37.1363566,36.4752254 36.905209,37.2545211 36.905209,38.0729366 C36.905209,38.8135 37.097832,39.5536761 37.4830779,40.3333592 C37.7912746,40.917831 38.2535697,41.3857183 38.8314385,41.6583944 C42.0289795,43.3339577 45.1879959,41.0735352 45.1879959,38.0729366 C45.1879959,37.2545211 44.9572336,36.5143451 44.5719877,35.8903662 C44.4945533,35.7737817 44.4945533,35.6955423 44.4945533,35.5789577 C44.4945533,35.3062817 44.7257008,35.0332183 45.0338975,35.0332183 L54.2797992,35.0332183 C54.5883811,35.0332183 54.8191434,34.7992746 54.8191434,34.4874789 L54.8191434,24.7447324 C54.8191434,24.3159648 54.3568484,24.0429014 53.9716025,24.2768451" id="Fill-3"></path>
                    </g>
                </g>
            </g>
        </g>
    </g>
</svg>